<?xml version="1.0" encoding="UTF-8"?><!DOCTYPE svg PUBLIC "-//W3C//DTD SVG 1.1//EN" "http://www.w3.org/Graphics/SVG/1.1/DTD/svg11.dtd"><svg xmlns="http://www.w3.org/2000/svg"><defs><style>.cls-1{fill:#fff}</style></defs><symbol id="bear-net" viewBox="0 0 43 30"><title>beer jagen netje icon</title><g fill="#36CBBF" fill-rule="evenodd"><path d="M21.802 26.871c-.499.281-.93.524-1.209.867-.178.22-.517.46-.858.622.235-.302.385-.5.464-.702.084-.214.168-.554.311-1.137.138-.562.31-1.26.482-1.766.15-.435.388-.935.604-1.346a4.1 4.1 0 0 0 .085.174c.349.679.966 1.654 1.431 2.381-.338.36-.848.647-1.31.907m20.891-13.04c-.124-.305-.368-.452-1.681-1.14-.284-.148-.553-.288-.665-.356-.112-.068-.162-.129-.29-.295-.107-.14-.24-.315-.456-.52-.533-.51-1.817-1.013-2.68-1.164a9.625 9.625 0 0 1-.996-.235 1.536 1.536 0 0 0-.316-.584c-.24-.278-.562-.453-.862-.466-.33-.015-.554.15-.706.382-.45-.196-.93-.161-1.32.1a1.551 1.551 0 0 0-.58.75c-.487.051-.767-.025-1.06-.104a5.807 5.807 0 0 0-.327-.082c-.076-.016-.213-.083-.357-.154-.475-.231-1.191-.582-2.514-.663-1.372-.084-2.153.234-2.842.515-.246.1-.479.196-.721.262-.744.204-1.48.174-2.697.125a91.008 91.008 0 0 1-2.017-.09l-1.25 1.258 1.088.055c.54.028 1.05.055 1.475.07l.651.025c1.298.053 2.155.088 3.095-.17a7.51 7.51 0 0 0 .87-.312c.613-.25 1.193-.487 2.267-.42 1.064.065 1.595.324 2.021.533.22.107.426.208.66.258.081.017.166.04.256.064.327.089.712.193 1.305.161.178.957.812 1.516.893 1.584a.651.651 0 0 0 .925-.083.663.663 0 0 0-.083-.93c-.005-.003-.45-.405-.468-1.031a1.34 1.34 0 0 1 .008-.204l.003-.02c.027-.19.093-.277.124-.298.018-.013.063.006.081.014a1.805 1.805 0 0 1 .459.293c.15.136.264.3.36.508.122.263.14.608.137.715a.657.657 0 0 0 1.311.056 3.269 3.269 0 0 0-.082-.806c.277.076.624.162.984.225.753.13 1.73.56 2.002.82.141.135.228.249.32.37.152.196.323.42.652.618.147.09.42.232.736.398.267.14.696.364.973.522-.047.126-.116.27-.19.368-.187.246-.3.395-.737.457l-.382.051c-.634.082-1.352.175-1.924.414a4.446 4.446 0 0 1-1.717.335c-.477-.01-.847-.155-1.277-.5a.654.654 0 0 0-.922.106.663.663 0 0 0 .105.927c.123.099.245.187.368.266a27.8 27.8 0 0 0-1.363.756 37.822 37.822 0 0 0-3.148 2.197 4.376 4.376 0 0 1-.16.12c.45-1.116.727-2.052.769-2.612a.659.659 0 0 0-.606-.707.658.658 0 0 0-.703.61c-.026.352-.297 1.446-1.147 3.309-.525 1.151-1.388 1.736-1.852 2.05-.283.19-.47.318-.572.56-.078.188-.087.38-.1 1.376-.01.617-.027 1.894-.121 2.19-.078.138-.334.392-.629.647l-.011-.086c-.03-.214-.113-.745-.258-1.033-.047-.093-.146-.25-.443-.712-.432-.674-1.155-1.802-1.513-2.498-.368-.714-.368-1.477-.356-1.724.045-.102.1-.212.168-.331.388-.675 1.566-1.97 1.988-2.413a.663.663 0 0 0-.02-.933.653.653 0 0 0-.928.02c-.066.07-1.629 1.714-2.176 2.665-.392.681-.48 1.195-.534 1.502a4.628 4.628 0 0 1-.02.108 12.67 12.67 0 0 0-.674 1.199c-.475.05-.88.067-1.203.069.469-1.073 1.064-2.75.483-4.546a.655.655 0 1 0-1.248.409c.503 1.555-.195 3.085-.613 3.999-.089.195-.166.363-.221.51-.24.636-1.503 2.213-2.669 2.787-1.05.516-2.822.537-4.02.398-.825-.095-1.822-.682-1.996-.855-.289-.342-.61-.378-.776-.37-.291.015-.554.177-.74.454-.117.175-.163.365-.185 1.088-.006.226-.009.458-.008.635a.717.717 0 0 1-.143-.14c.006-.107.02-.275.036-.464.04-.487.096-1.154.106-1.76.007-.379.154-.481.736-.687.168-.059.342-.12.497-.208.466-.264 1.451-.857 1.493-.882l.591-.357-.383-.576c-.382-.575-.623-1.109-.74-2.085l-1.125 1.13c.1.375.235.733.421 1.092-.309.184-.674.4-.9.528a2.38 2.38 0 0 1-.288.113c-.516.182-1.59.561-1.614 1.91-.01.561-.063 1.203-.102 1.672-.023.278-.04.48-.043.607-.02.685.695 1.337 1.348 1.495a1.106 1.106 0 0 0 .982-.226c.287-.24.461-.625.444-.982-.006-.12-.006-.39 0-.657.6.369 1.483.749 2.239.837.497.057 3.064.303 4.747-.525 1.254-.617 2.527-2.06 3.091-3.04.29.017.704.025 1.223-.003a25.738 25.738 0 0 0-.478 1.766c-.097.399-.198.81-.254.96-.04.073-.194.27-.296.402-.46.588-.893 1.143-.686 1.717.102.282.344.483.664.551.179.038.37.045.57.025.874-.084 1.872-.667 2.376-1.287.12-.149.5-.362.833-.55l.279-.158a1.103 1.103 0 0 0-.106.31c-.065.367.042.712.293.945.25.232.61.33 1.037.29.123-.012.252-.036.385-.071.679-.18 2.227-1.456 2.548-2.101.19-.381.23-1.123.253-2.752.004-.277.009-.604.017-.808l.076-.052c.412-.278 1.168-.79 1.804-1.701.423-.179 1.285-.579 1.976-1.127a36.227 36.227 0 0 1 3.016-2.105c.669-.408 2.1-1.137 2.55-1.363.137-.002.278-.01.42-.023a5.836 5.836 0 0 0 1.658-.413c.41-.171 1.036-.252 1.589-.324.138-.018.272-.035.398-.053.894-.128 1.292-.563 1.595-.962.202-.266.688-1.169.462-1.724M7.496 14.137v-.77h2.637v.437l-1.73 1.74-.907-1.407zM2.46 4.06l.585-.59v1.856H2.017a1.568 1.568 0 0 1 .442-1.266zM6.235.912c.118 0 .237.014.354.041v.808H4.744l.393-.395c.298-.3.696-.454 1.098-.454zm1.76.85h-.499v-.327l.5.326zm7.023 7.128h-.434V6.24h.275l1.696 1.106-1.537 1.545zm-3.978 3.565V9.803h2.637v.436l-2.203 2.216h-.434zm-3.544 0h2.637V9.803H7.496v2.652zm0-3.565h2.637V6.24H7.496V8.89zm2.637-5.735v2.17H7.496v-2.65h1.9l.737.48zm.907 2.17V3.748l2.42 1.579h-2.42zm0 3.565h2.637V6.24H11.04V8.89zm-4.451.913v2.652H6.41l-1.71-2.652H6.59zm0-3.564V8.89H4.113l-.16-.249V6.24h2.636zm-2.637-.913H6.59V2.674H3.952v2.652zm-.908 1.908l-.642-.995h.642v.995zm15.146.099l.006-.006-.032-.02-.786-.79-.167.168L7.569.395A2.458 2.458 0 0 0 4.495.72L1.817 3.414a2.494 2.494 0 0 0-.324 3.092l6.254 9.698L0 23.995l1.142 1.149L18.52 7.665l-.33-.332z"/></g></symbol><symbol id="check" viewBox="0 0 24 24"><path d="M0 0h24v24H0z" fill="none"/><path d="M9 16.17L4.83 12l-1.42 1.41L9 19 21 7l-1.41-1.41z"/></symbol><symbol id="dda" viewBox="0 0 201.31 152.26"><title>dda</title><g id="Page-1"><g id="Group"><path class="cls-1" d="M136.47 64.84H20.79V20.77h115.68zm-113.18-2.5H134V23.27H23.29z"/><path class="cls-1" d="M168.65 107.91H10.39V10.39h158.26zm-155.76-2.5h153.26V12.89H12.89z"/><path class="cls-1" d="M201.31 152.26H0V0h201.31zM2.5 149.76h196.31V2.5H2.5z"/><path id="Fill-5" class="cls-1" d="M46.23 43.35c0-4.43-2.72-6.53-6.66-6.53h-2.48v13h2.48c3.94 0 6.66-2.1 6.66-6.52zm-11.94-9.07h5.23c5.52 0 9.56 3.14 9.56 9.07s-4 9.06-9.56 9.06h-5.23z"/><path id="Fill-6" class="cls-1" d="M67.82 46c0 4.37-3 6.81-7.07 6.81s-7.08-2.48-7.08-6.81V34.29h2.8v11.59a4.28 4.28 0 1 0 8.56 0V34.29h2.79z"/><path id="Fill-7" class="cls-1" d="M71.6 34.28h13.99v2.54h-5.6v15.59h-2.8V36.82H71.6v-2.54z"/><path id="Fill-8" class="cls-1" d="M105 48c-1.89 3.09-4 4.77-7.93 4.77-5.16 0-9-3.89-9-9.42a9.07 9.07 0 0 1 9.12-9.43 8.21 8.21 0 0 1 7.75 4.69l-2.23 1.6c-1.3-2.51-3.09-3.75-5.57-3.75-3.42 0-6.22 2.9-6.22 6.89s2.61 6.88 6.19 6.88c2.44 0 4.35-1.16 5.73-3.75z"/><path id="Fill-9" class="cls-1" d="M109.63 34.28h2.8v7.62h8.44v-7.62h2.81v18.13h-2.81v-7.98h-8.44v7.98h-2.8V34.28z"/><path id="Fill-10" class="cls-1" d="M36.08 85.37c0-4.43-2.72-6.53-6.66-6.53h-2.48v13h2.48c3.94 0 6.66-2.09 6.66-6.52zm-11.94-9.06h5.23c5.52 0 9.56 3.13 9.56 9.06s-4 9.06-9.56 9.06h-5.23z"/><path id="Fill-11" class="cls-1" d="M48.06 94.43h2.79V76.31h-2.79v18.12z"/><path id="Fill-12" class="cls-1" d="M74.41 91.63a6.08 6.08 0 0 1-5.64 3.16c-5.11 0-8.84-4-8.84-9.42A9.16 9.16 0 0 1 69.07 76a8.47 8.47 0 0 1 7.73 4.42l-2.13 1.48A6.11 6.11 0 0 0 69 78.43c-3.39 0-6.24 2.72-6.24 6.94s2.46 6.88 6 6.88c3.29 0 5-2.09 5.34-4.91H68V85h9v9.4h-1.91z"/><path id="Fill-13" class="cls-1" d="M86.66 94.43h2.79V76.31h-2.79v18.12z"/><path id="Fill-14" class="cls-1" d="M97.56 76.31h13.99v2.53h-5.6v15.59h-2.79V78.84h-5.6v-2.53z"/><path id="Fill-15" class="cls-1" d="M124 81.23L121.75 87h5.65l-2.2-5.72c-.37-.93-.63-1.74-.63-1.74s-.25.81-.62 1.74zm-.78-4.92H126l7.26 18.12h-3l-1.94-5.05h-7.52l-1.94 5.05h-3z"/><path id="Fill-16" class="cls-1" d="M141.23 76.31h2.8v15.63h9.09v2.49h-11.89V76.31z"/><path id="Fill-17" class="cls-1" d="M22.76 124.22l-2.2 5.72h5.64l-2.2-5.72c-.36-.93-.62-1.74-.62-1.74s-.26.81-.62 1.74zM22 119.3h2.8l7.2 18.12h-3l-1.94-5h-7.44l-1.94 5h-2.95z"/><path id="Fill-18" class="cls-1" d="M53.45 134.62a6.1 6.1 0 0 1-5.65 3.16c-5.1 0-8.83-4-8.83-9.42a9.15 9.15 0 0 1 9.14-9.42 8.47 8.47 0 0 1 7.73 4.42l-2.13 1.48a6.11 6.11 0 0 0-5.65-3.42c-3.39 0-6.24 2.72-6.24 6.94s2.46 6.88 6 6.88c3.3 0 4.95-2.09 5.34-4.91h-6.08V128H56v9.4h-1.87z"/><path id="Fill-19" class="cls-1" d="M66.27 119.3h11.92v2.48h-9.12v5.03h8.4v2.48h-8.4v5.65h9.2v2.48h-12V119.3z"/><path id="Fill-20" class="cls-1" d="M88.1 119.3h2.84l8.14 12.63s.62 1 .78 1.37v-14h2.69v18.12H99.7l-8.13-12.63a13.85 13.85 0 0 1-.78-1.37v14H88.1z"/><path id="Fill-21" class="cls-1" d="M129.17 133c-1.89 3.08-4 4.76-7.93 4.76-5.16 0-9-3.88-9-9.42a9.07 9.07 0 0 1 9.12-9.42 8.22 8.22 0 0 1 7.75 4.68l-2.23 1.61c-1.3-2.51-3.09-3.76-5.57-3.76-3.42 0-6.22 2.9-6.22 6.89s2.61 6.89 6.19 6.89c2.44 0 4.35-1.17 5.73-3.76z"/><path id="Fill-22" class="cls-1" d="M138.66 137.42h2.79V119.3h-2.79v18.12z"/><path id="Fill-23" class="cls-1" d="M152.01 119.3h11.92v2.48h-9.12v5.03h8.39v2.48h-8.39v5.65H164v2.48h-11.99V119.3z"/><path id="Fill-24" class="cls-1" d="M180.66 126.91c3.9.75 5.85 2.38 5.85 5.41s-2.54 5.46-6.63 5.46c-4.33 0-6.84-2.48-7.44-5.72l2.47-1.27c.51 3 2.19 4.56 4.94 4.56 2.41 0 3.86-1.32 3.86-2.92 0-1.9-1.5-2.73-4.61-3.32-3.37-.65-5.83-2.28-5.83-5.33 0-2.87 2.57-4.84 6.22-4.84a6.66 6.66 0 0 1 6.71 4.5l-2.23 1.3a4.46 4.46 0 0 0-4.51-3.37c-1.91 0-3.55.8-3.55 2.36s1.56 2.56 4.75 3.18"/><path class="cls-1" d="M136.47 64.84H20.79V20.77h115.68zm-113.18-2.5H134V23.27H23.29z"/><path class="cls-1" d="M168.65 107.91H10.39V10.39h158.26zm-155.76-2.5h153.26V12.89H12.89z"/><path class="cls-1" d="M201.31 152.26H0V0h201.31zM2.5 149.76h196.31V2.5H2.5z"/><path id="Fill-5-2" data-name="Fill-5" class="cls-1" d="M46.23 43.35c0-4.43-2.72-6.53-6.66-6.53h-2.48v13h2.48c3.94 0 6.66-2.1 6.66-6.52zm-11.94-9.07h5.23c5.52 0 9.56 3.14 9.56 9.07s-4 9.06-9.56 9.06h-5.23z"/><path id="Fill-6-2" data-name="Fill-6" class="cls-1" d="M67.82 46c0 4.37-3 6.81-7.07 6.81s-7.08-2.48-7.08-6.81V34.29h2.8v11.59a4.28 4.28 0 1 0 8.56 0V34.29h2.79z"/><path id="Fill-7-2" data-name="Fill-7" class="cls-1" d="M71.6 34.28h13.99v2.54h-5.6v15.59h-2.8V36.82H71.6v-2.54z"/><path id="Fill-8-2" data-name="Fill-8" class="cls-1" d="M105 48c-1.89 3.09-4 4.77-7.93 4.77-5.16 0-9-3.89-9-9.42a9.07 9.07 0 0 1 9.12-9.43 8.21 8.21 0 0 1 7.75 4.69l-2.23 1.6c-1.3-2.51-3.09-3.75-5.57-3.75-3.42 0-6.22 2.9-6.22 6.89s2.61 6.88 6.19 6.88c2.44 0 4.35-1.16 5.73-3.75z"/><path id="Fill-9-2" data-name="Fill-9" class="cls-1" d="M109.63 34.28h2.8v7.62h8.44v-7.62h2.81v18.13h-2.81v-7.98h-8.44v7.98h-2.8V34.28z"/><path id="Fill-10-2" data-name="Fill-10" class="cls-1" d="M36.08 85.37c0-4.43-2.72-6.53-6.66-6.53h-2.48v13h2.48c3.94 0 6.66-2.09 6.66-6.52zm-11.94-9.06h5.23c5.52 0 9.56 3.13 9.56 9.06s-4 9.06-9.56 9.06h-5.23z"/><path id="Fill-11-2" data-name="Fill-11" class="cls-1" d="M48.06 94.43h2.79V76.31h-2.79v18.12z"/><path id="Fill-12-2" data-name="Fill-12" class="cls-1" d="M74.41 91.63a6.08 6.08 0 0 1-5.64 3.16c-5.11 0-8.84-4-8.84-9.42A9.16 9.16 0 0 1 69.07 76a8.47 8.47 0 0 1 7.73 4.42l-2.13 1.48A6.11 6.11 0 0 0 69 78.43c-3.39 0-6.24 2.72-6.24 6.94s2.46 6.88 6 6.88c3.29 0 5-2.09 5.34-4.91H68V85h9v9.4h-1.91z"/><path id="Fill-13-2" data-name="Fill-13" class="cls-1" d="M86.66 94.43h2.79V76.31h-2.79v18.12z"/><path id="Fill-14-2" data-name="Fill-14" class="cls-1" d="M97.56 76.31h13.99v2.53h-5.6v15.59h-2.79V78.84h-5.6v-2.53z"/><path id="Fill-15-2" data-name="Fill-15" class="cls-1" d="M124 81.23L121.75 87h5.65l-2.2-5.72c-.37-.93-.63-1.74-.63-1.74s-.25.81-.62 1.74zm-.78-4.92H126l7.26 18.12h-3l-1.94-5.05h-7.52l-1.94 5.05h-3z"/><path id="Fill-16-2" data-name="Fill-16" class="cls-1" d="M141.23 76.31h2.8v15.63h9.09v2.49h-11.89V76.31z"/><path id="Fill-17-2" data-name="Fill-17" class="cls-1" d="M22.76 124.22l-2.2 5.72h5.64l-2.2-5.72c-.36-.93-.62-1.74-.62-1.74s-.26.81-.62 1.74zM22 119.3h2.8l7.2 18.12h-3l-1.94-5h-7.44l-1.94 5h-2.95z"/><path id="Fill-18-2" data-name="Fill-18" class="cls-1" d="M53.45 134.62a6.1 6.1 0 0 1-5.65 3.16c-5.1 0-8.83-4-8.83-9.42a9.15 9.15 0 0 1 9.14-9.42 8.47 8.47 0 0 1 7.73 4.42l-2.13 1.48a6.11 6.11 0 0 0-5.65-3.42c-3.39 0-6.24 2.72-6.24 6.94s2.46 6.88 6 6.88c3.3 0 4.95-2.09 5.34-4.91h-6.08V128H56v9.4h-1.87z"/><path id="Fill-19-2" data-name="Fill-19" class="cls-1" d="M66.27 119.3h11.92v2.48h-9.12v5.03h8.4v2.48h-8.4v5.65h9.2v2.48h-12V119.3z"/><path id="Fill-20-2" data-name="Fill-20" class="cls-1" d="M88.1 119.3h2.84l8.14 12.63s.62 1 .78 1.37v-14h2.69v18.12H99.7l-8.13-12.63a13.85 13.85 0 0 1-.78-1.37v14H88.1z"/><path id="Fill-21-2" data-name="Fill-21" class="cls-1" d="M129.17 133c-1.89 3.08-4 4.76-7.93 4.76-5.16 0-9-3.88-9-9.42a9.07 9.07 0 0 1 9.12-9.42 8.22 8.22 0 0 1 7.75 4.68l-2.23 1.61c-1.3-2.51-3.09-3.76-5.57-3.76-3.42 0-6.22 2.9-6.22 6.89s2.61 6.89 6.19 6.89c2.44 0 4.35-1.17 5.73-3.76z"/><path id="Fill-22-2" data-name="Fill-22" class="cls-1" d="M138.66 137.42h2.79V119.3h-2.79v18.12z"/><path id="Fill-23-2" data-name="Fill-23" class="cls-1" d="M152.01 119.3h11.92v2.48h-9.12v5.03h8.39v2.48h-8.39v5.65H164v2.48h-11.99V119.3z"/><path id="Fill-24-2" data-name="Fill-24" class="cls-1" d="M180.66 126.91c3.9.75 5.85 2.38 5.85 5.41s-2.54 5.46-6.63 5.46c-4.33 0-6.84-2.48-7.44-5.72l2.47-1.27c.51 3 2.19 4.56 4.94 4.56 2.41 0 3.86-1.32 3.86-2.92 0-1.9-1.5-2.73-4.61-3.32-3.37-.65-5.83-2.28-5.83-5.33 0-2.87 2.57-4.84 6.22-4.84a6.66 6.66 0 0 1 6.71 4.5l-2.23 1.3a4.46 4.46 0 0 0-4.51-3.37c-1.91 0-3.55.8-3.55 2.36s1.56 2.56 4.75 3.18"/></g></g></symbol><symbol id="facebook" viewBox="0 0 10 20"><path d="M9.3 6.4H6.2V4.3c0-.8.5-1 .9-1h2.2V0H6.2C2.8 0 2 2.5 2 4.2v2.2H0v3.5h2v9.9h4.2V9.9H9l.3-3.5z"/></symbol><symbol id="instag" viewBox="0 0 20 21"><path d="M16.02.9H3.88C1.792.9 0 2.592 0 4.78v12.24c0 2.089 1.692 3.88 3.88 3.88h12.24c2.089 0 3.88-1.692 3.88-3.88V4.78C19.9 2.593 18.209.9 16.02.9zm1.194 2.289h.398v3.383h-3.383V3.189h2.985zM7.064 8.76c.697-.796 1.692-1.393 2.886-1.393 1.194 0 2.19.597 2.886 1.492.398.597.696 1.294.696 2.09 0 1.89-1.592 3.482-3.482 3.482-1.99-.1-3.582-1.691-3.582-3.582 0-.796.199-1.492.597-2.09zM18.01 16.92a1.89 1.89 0 0 1-1.89 1.89H3.88a1.89 1.89 0 0 1-1.89-1.89V8.76h2.985c-.298.697-.497 1.394-.497 2.09 0 2.985 2.487 5.473 5.472 5.473 2.985 0 5.473-2.488 5.473-5.473 0-.696-.1-1.393-.398-2.09h2.985v8.16z"/></symbol><symbol id="jachthond" viewBox="0 0 294 214"><title>jachthond</title><g fill="#36CBBF" fill-rule="evenodd"><path d="M285.972 11.81c.183 0 .374-.007.532-.007.224.008.473 0 .656.016.216.009.39.042.549.067.133.024.282.041.374.066.14.033.232.083.316.133.041.025.116.041.15.066a.569.569 0 0 1 .165.2c.183 1.145.233 2.158.283 3.162-1.305-.622-2.252-1.768-3.025-3.702m-10.015 21.534c-4.962 2.947-10.83 6.168-17.628 7.198-.224.033-.448.1-.656.199l-11.02 5.014c-.109.05-.158.157-.25.216-.166.108-.274.224-.416.365a2.368 2.368 0 0 0-.572.921c-.042.117-.159.175-.183.3-.907 4.723-1.73 9.563-2.527 14.237-3.25 19.035-6.6 38.718-16.373 54.624-.09.15-.166.315-.224.482-1.363 3.892-1.937 8.617-1.804 14.36-2.501 17.708-2.983 34.85-1.446 50.94.241 2.449.316 4.449.39 6.051.3 7.298 1.223 9.14 9.592 10.494 2.302.356 5.185 1.427 5.335 6.259l-12 .1c-2.993.024-3.1-.357-4.123-4.01-.565-2.01-1.271-4.525-2.834-7.447-3.424-6.367-4.845-15.93-6.358-26.042-1.513-10.16-3.075-20.662-6.773-30.5-.058-.14-.192-.215-.274-.348a2.124 2.124 0 0 0-.383-.482 2.168 2.168 0 0 0-.897-.54c-.133-.05-.208-.182-.341-.207l-5.552-.971c-28.024-4.914-57.005-9.995-80.466-21.792a2.49 2.49 0 0 0-1.92-.133 2.481 2.481 0 0 0-1.447 1.27c-1.554 3.205-3.565 6.501-5.7 9.979l-1.655 2.723c-.017.025-.008.05-.025.075-.008.025-.041.025-.05.05-5.934 11.231-14.394 19.69-25.963 25.926-16.456 9.795-52.37 24.614-54.248 48.771A2.484 2.484 0 0 0 30.382 204c3.224-.988 5.942-.788 7.272.532.847.838 1.163 2.192.94 3.893l-15.933.125c-1.936-2.557-1.754-4.5-1.38-5.795 1.862-4.383 2.128-9.505 2.419-14.918.1-1.934.208-3.943.39-5.86.308-2.99.333-5.106.35-6.65.041-3.312.041-3.312 5.692-7.248 18.758-13.033 31.768-24.97 33.596-44.952 1.097-12.162 4.63-22.431 9.89-29.637l7.713-7.43c.873-.564 1.737-1.162 2.66-1.602 20.636-8.418 48.502-8.758 73.011-8.426.324 0 .665-.058.973-.183 17.884-7.23 33.925-11.796 50.456-14.345a2.483 2.483 0 0 0 1.986-1.685c2.85-8.742 8.26-18.762 13.672-28.284.074-.133.14-.273.19-.423 4.912-14.337 9.965-23.635 19.872-25.652 9.94-1.52 16.68.366 21.218 5.944.49.598 1.221.938 2.003.922 2.909-.075 5.834-.167 8.76-.25l4.604-.124c1.23 3.852 3.308 7.446 7.837 8.684-1.438 5.935-6.15 9.123-12.616 12.709m-32.446 52.076c-.324 2.224-.632 4.45-1.072 6.64-.308 1.537-.748 3.031-1.122 4.542-.499 2.067-.99 4.134-1.62 6.143-.483 1.536-1.106 3.005-1.663 4.508-.715 1.926-1.43 3.844-2.285 5.695-.682 1.478-1.513 2.897-2.294 4.333-.964 1.768-1.929 3.537-3.05 5.222-.217.34-.5.64-.715.971.24-1.702.565-3.287 1.039-4.69 6.765-11.1 10.53-23.709 13.272-36.627-.132 1.096-.332 2.175-.49 3.263m13.756 43.367c1.386 1.658 1.484 3.258 1.49 3.5-.004.073 0 .07.001.16l.722 30.867c.005.196.029.391.073.582.244 1.068.336 3.51-.558 4.322-.756.686-2.756.581-5.351-.279-3.407-1.128-4.872-2.91-5.026-3.833-.035-.21-.005-.233.094-.308 3.029-2.304 4.716-3.003 4.714-3.003a2.925 2.925 0 0 0 1.867-3.078l-2.271-19.133a2.951 2.951 0 0 0-.102-.49c-.077-.261-2.004-6.364-10.754-5.865-4.432.259-9.988.654-13.092.88l.067-.511c1.496-1.735 2.71-3.612 4.015-5.446.723-1.028 1.559-2.002 2.251-3.046.056.003.11.009.167.009.026 0 2.735.006 9.722.355 5.711.287 9.851 1.78 11.971 4.317m-86.577 5.836c-2.917-.249-5.784-.54-8.593-.863-1.18-.141-2.336-.29-3.5-.44-2.277-.29-4.529-.59-6.747-.913-1.173-.175-2.344-.349-3.5-.524a674.119 674.119 0 0 1-6.798-1.095c-.98-.158-1.97-.324-2.934-.49-3.033-.515-6.042-1.038-9.026-1.569-5.194-.905-10.53-1.85-15.94-2.723 1.613-2.64 3.159-5.18 4.504-7.704 16.39 7.854 35.065 12.66 54.122 16.479-.54-.05-1.055-.108-1.588-.158m-71.923 31.425c-7.718 4.3-13.175 12.472-16.435 17.355-.554.83-1.034 1.548-1.45 2.136-3.149 4.457-4.934 14.035-5.127 15.113a2.436 2.436 0 0 0 2.886 2.818c6.11-1.237 7.16.861 7.665 1.87.512 1.023.443 2.562.249 3.784h-15.02c-.583-.548-1.543-1.663-1.86-3.29-.001-.874.89-4.32 2.074-7.576.715-1.964 1.048-8.646 1.149-23.065.005-.72.008-1.287.013-1.655.012-.927 1.384-4.907 6.442-13.947 1.561-.88 3.074-1.75 4.521-2.612 11.652-6.276 20.744-15.125 27.044-26.34 2.772.435 5.535.89 8.278 1.35-5.442 23.472-16.074 31.633-20.429 34.059M13.257 76.37c11.618 10.343 44.47 6.842 60.777 9.174-1.205 1.154-2.328 2.433-3.407 3.794-15.717-3.171-47.422-.89-57.37-12.968m280.344-65c-.008-.075-.033-.166-.05-.25a6.08 6.08 0 0 0-.665-1.543 5.115 5.115 0 0 0-.955-1.13c-2.136-1.892-5.51-1.684-6.957-1.593l-.257.008c-2.909.075-5.827.15-8.727.24-2.526.067-5.053.142-7.562.209-5.668-6.26-13.88-8.477-25.15-6.742-13.605 2.765-19.348 16.23-23.636 28.708-5.211 9.181-10.414 18.828-13.472 27.544-16.248 2.631-32.064 7.173-49.6 14.229-24.867-.332-53.107.091-74.59 8.858-.766.365-1.463.871-2.203 1.303C52.25 78.713 19.86 87.915 4.636 62.08a2.491 2.491 0 0 0-3.233-.98 2.502 2.502 0 0 0-1.23 3.155c11.51 29.072 42.038 23.565 67.47 29.393-4.688 7.679-7.846 17.591-8.876 29.022-1.796 19.575-14.473 29.503-31.477 41.325-6.99 4.865-7.762 5.587-7.829 11.273-.025 1.536-.05 3.438-.324 6.219-.2 2.042-.307 4.1-.416 6.085-.266 5.014-.515 9.754-2.069 13.348a1.36 1.36 0 0 0-.091.258c-1.239 3.993-.2 7.87 3.091 11.53a2.5 2.5 0 0 0 1.87.83l19.09-.157a2.484 2.484 0 0 0 2.36-1.768c1.322-4.367.683-8.136-1.803-10.61-2.027-2.017-5.053-2.88-8.601-2.523 2.649-14.407 21.858-25.178 38.953-34.558-3.455 6.926-3.48 8.829-3.49 9.557-.004.375-.008.951-.013 1.681-.111 15.929-.527 20.451-.855 21.433-.46 1.264-2.732 7.686-2.303 10.044.816 4.482 4.117 6.73 4.491 6.973.395.254.855.39 1.325.39h17.812a2.44 2.44 0 0 0 2.315-1.666c.182-.548 1.73-5.453-.133-9.173-1.748-3.492-4.842-5.116-9.414-4.927.792-3.316 2.088-7.725 3.613-9.883.453-.64.949-1.383 1.522-2.242 3.016-4.517 8.064-12.076 14.753-15.802 4.942-2.754 17.01-11.909 22.87-37.493 1.584.273 3.157.548 4.714.822 2.577.457 5.17.913 7.78 1.362.93.157 1.886.315 2.817.473 1.712.29 3.415.573 5.144.855 1.206.19 2.427.374 3.64.556 1.521.233 3.042.473 4.588.69 1.297.182 2.626.348 3.94.522 1.504.2 3 .399 4.529.573 1.363.166 2.768.307 4.164.448 1.537.159 3.075.324 4.646.457 1.437.132 2.909.232 4.371.34 1.595.116 3.208.224 4.837.316 1.505.082 3.025.141 4.554.2 1.696.065 3.416.115 5.154.148 1.537.025 3.1.042 4.678.042.823.008 1.613.033 2.452.025 1.396-.008 2.86-.058 4.288-.091.582-.017 1.13-.009 1.713-.025 3.092 8.89 4.52 18.495 5.909 27.81 1.578 10.56 3.066 20.538 6.89 27.66 1.304 2.441 1.903 4.566 2.426 6.443 1.064 3.785 2.17 7.695 8.968 7.637l14.353-.108a2.514 2.514 0 0 0 2.46-2.208c.872-7.778-2.56-12.86-9.4-13.93-1.288-.207-4.305-.697-4.845-1.337-.39-.473-.474-2.316-.557-4.45-.074-1.66-.157-3.735-.407-6.317-1.3-13.553-1.128-27.888.518-42.697 2.649-.196 9.144-.668 14.17-.96 3.367-.203 4.456 1.121 4.749 1.627l1.982 16.694c-1.02.591-2.39 1.473-4.075 2.754-1.84 1.4-2.708 3.614-2.322 5.925.604 3.615 3.952 6.764 8.958 8.423 2.054.68 3.905 1.02 5.544 1.02 2.277 0 4.147-.656 5.589-1.965 3.357-3.047 2.668-8.194 2.395-9.631l-.715-30.55c.006-.727-.124-3.767-2.476-6.859-3.175-4.173-8.742-6.487-16.548-6.878-3.11-.156-5.382-.245-6.97-.296.327-.656.649-1.314.969-1.973.382-.78.873-1.511 1.222-2.3a89.035 89.035 0 0 0 3.856-10.327c.341-1.104.549-2.241.848-3.354.673-2.457 1.354-4.906 1.854-7.413.307-1.528.49-3.08.739-4.624.35-2.133.74-4.259.989-6.409.191-1.702.29-3.395.432-5.097.175-2.026.383-4.043.49-6.06.092-1.785.117-3.545.158-5.321.059-1.943.134-3.894.142-5.836.008-1.819-.025-3.603-.05-5.413-.025-1.536-.009-3.088-.05-4.607l9.209-4.193c7.53-1.211 13.787-4.64 19.015-7.745 6.175-3.42 14.104-7.994 15.326-18.479.033-.108.14-.175.157-.291.042-.382.009-.838.034-1.237.016-.381.033-.764.041-1.162 0-1.586-.091-3.263-.399-5.122"/><path d="M246.698 34.454c-2.057 1.92-5.736 1.895-7.882-.051-2.969-2.697-2.533-8.252 1.089-15.105l5.93 4.668c2.766 4.608 3.09 8.415.863 10.488m2.371-14.32l-8.422-6.631a2.312 2.312 0 0 0-1.872-.461c-.661.12-1.242.537-1.605 1.135-8.995 14.815-4.05 21.796-1.5 24.11 2.008 1.825 4.647 2.73 7.26 2.713 2.541-.025 5.059-.93 6.962-2.705 1.59-1.477 6.253-7.11-.25-17.521a2.488 2.488 0 0 0-.573-.64"/></g></symbol><symbol id="linkedin" viewBox="0 0 20 20"><path d="M18.5 0h-17C.7 0 0 .603 0 1.407v17.186C0 19.397.7 20 1.5 20h17c.8 0 1.5-.603 1.5-1.407V1.407C19.9.603 19.3 0 18.5 0zM6.1 16.784h-3V7.739h3v9.045zM4.6 6.533c-1 0-1.7-.704-1.7-1.608 0-.905.7-1.608 1.7-1.608s1.7.703 1.7 1.608c0 .904-.7 1.608-1.7 1.608zm12.3 10.25h-3V11.96c0-1.206-.4-2.01-1.5-2.01-.8 0-1.3.603-1.5 1.105-.1.201-.1.503-.1.704v5.025h-3V7.739h3v1.306c.4-.603 1.1-1.507 2.7-1.507 2 0 3.5 1.306 3.5 4.12v5.126h-.1z"/></symbol><symbol id="logo-bear" viewBox="0 0 45 65"><path d="M43.393 30.612l-3.677 13.504V17.122l3.677 13.49zm-3.9 13.83l-4.497-9.729 4.497-17.54v27.27zM24.376 47.74l10.476-12.807 4.592 9.934-15.068 2.873zm-2.42 10.905l2.234-10.642 14.985-2.858-17.219 13.5zm8.942-1.69l-8.674 1.763 6.082-4.768 10.758-8.435-8.166 11.44zm-9.183 1.752l-6.411-5.872 8.633-4.714-2.222 10.586zm-6.49 5.741V53.064l6.392 5.854-6.392 5.53zm-.111-11.762l-8.5-4.667H23.66l-8.545 4.667zm-7.87-13.962l7.641 5.79-8.569 3.223.928-9.013zM5.26 30.185l.303-.073 4.117-.982-2.539 8.894-1.88-7.84zM4.056 25l-1.397-6.025 10.018.873-.841 1.121-6.657 8.875L4.056 25zM15.114 2.256L27.49 18.663l-8.194-2.051-4.155-1.04a.116.116 0 0 0-.053 0h-.001l-3.998 1.009-.122.03-8.08 2.024L15.114 2.256zM33.8 13.049l5.499 3.193-11.485 2.482L17.573 5.146l-2.038-2.702L33.8 13.049zM16.721 2.507l13.406 2.697 8.98 10.668-23.354-13.56.968.195zm7.402.245l4.93 2.009-12.305-2.476 7.375.467zM39.438 1.26v9.016l-9.001-5.158 9-3.858zm0 14.659L30.678 5.51l8.76 5.02v5.387zm-11.511 3.01l11.525-2.491-4.603 17.95-6.922-15.459zm-2.64 11.112l2.515-10.844 6.85 15.297-9.364-4.453zm-2.006 8.267l1.954-8.045 9.34 4.441-11.294 3.604zm-.035.245l11.308-3.608-10.375 12.684-.933-9.076zm-4.112 7.38l-3.792-1.419 7.693-5.831.932 9.057-4.833-1.807zm-4.02-1.266l8.366 3.129H6.794l8.32-3.129zm-2.257-4.511c.009.002.02.004.029.004h4.455c.01 0 .02-.002.03-.004l5.23-1.423-6.341 4.806-1.146.87-7.49-5.676 5.233 1.423zM9.89 29.199l3.814 3.245a.11.11 0 0 0 .072.027h2.673a.11.11 0 0 0 .07-.025l3.993-3.25 2.467 9.166H7.247L9.891 29.2zm-.137-.316l-2.014.477-2.34.562 6.01-8.012 1.144-1.526-2.8 8.499zm3.205-9.018h4.358l3.092 8.996-5.277-.872a.098.098 0 0 0-.037 0l-5.1.872 2.964-8.996zm5.489 1.104l-.842-1.122 10.02-.875L26.228 25l-1.124 4.844-6.656-8.875zm2.213 7.939l-2.93-8.522 1.144 1.524 6.009 8.012-2.34-.562-1.883-.452zm4.06 1.204l.303.073-1.904 7.84-.299-1.11-2.09-7.761 3.99.958zm-13.44-13.348l3.833-.97 1.96.491 2.02.506-1.76 2.85h-4.391l-1.662-2.877zM1.173 4.759l4.93-2.008 7.375-.467L1.173 4.76zM44.67 5.897a.168.168 0 0 0-.035-.191L39.72.946c-.037-.037-.081-.017-.143.009l-.123.054-9.27 3.973-5.995-2.443a.12.12 0 0 0-.035-.008l-9.035-.572-.003.001-.005-.002-.003.001-.004-.001-9.034.572a.11.11 0 0 0-.035.008L.07 4.968c-.032.012-.119.039-.097.146.026.122.157.083.157.083l13.375-2.691 1.347-.27L2.588 18.662c-.217.18-.107.533-.107.533L4.996 30.04l.053.222 1.945 8.176-.002.005c-.001.005.004.01.003.017.005.185-.855 8.796-.917 9.41-.002.002-.004.005-.005.009-.002.008.002.016.002.025 0 .008-.005.014-.004.022 0 .005.005.007.006.011a.104.104 0 0 0 .02.034c.007.01.013.018.022.025.004.002.004.006.008.008l8.875 4.873v11.814a.112.112 0 0 0 .112.112.11.11 0 0 0 .072-.028l6.649-5.751 9.15-1.86a.11.11 0 0 0 .069-.045l8.641-12.106c.004-.005.002-.011.005-.017.003-.006.01-.01.012-.018l3.904-14.337a.113.113 0 0 0 0-.058l-3.873-14.208c.004-.006.01-.008.013-.014L44.67 5.897z" fill-rule="evenodd"/></symbol><symbol id="logo-nobears" viewBox="0 0 280 328"><title>logo-minimumlinewidthtest2</title><path d="M57.676 259.521H37.392l-20.91-40.35h-.352c.496 6.346.744 11.19.744 14.533v25.817H3.17v-57.274h20.204l20.832 39.803h.235c-.365-5.772-.548-10.408-.548-13.908v-25.895h13.783v57.274zm65.942-28.715c0 9.636-2.363 16.964-7.088 21.978-4.725 5.014-11.643 7.52-20.753 7.52-8.98 0-15.866-2.52-20.655-7.56-4.791-5.042-7.186-12.38-7.186-22.016 0-9.533 2.38-16.812 7.145-21.84 4.764-5.029 11.69-7.542 20.774-7.542 9.11 0 16.016 2.495 20.715 7.483 4.698 4.988 7.048 12.313 7.048 21.977zm-39.393 0c0 11.073 3.85 16.61 11.552 16.61 3.916 0 6.82-1.345 8.712-4.034 1.892-2.691 2.839-6.884 2.839-12.576 0-5.72-.958-9.944-2.879-12.674-1.918-2.728-4.782-4.094-8.594-4.094-7.754 0-11.63 5.589-11.63 16.768zM3.17 268.216h19.97c7.78 0 13.555 1.155 17.327 3.466 3.772 2.312 5.66 5.908 5.66 10.793 0 3.212-.823 5.954-2.468 8.226-1.645 2.273-3.811 3.736-6.5 4.388v.391c3.55.94 6.121 2.508 7.714 4.702s2.389 5.04 2.389 8.54c0 5.197-1.952 9.29-5.855 12.282-3.903 2.99-9.222 4.485-15.957 4.485H3.17v-57.274zm15.467 33.298v12.026h5.444c4.829 0 7.244-2.037 7.244-6.111 0-1.907-.648-3.37-1.938-4.388-1.294-1.019-3.166-1.527-5.62-1.527h-5.13zm0-11.323h4.66c2.22 0 3.935-.455 5.149-1.37 1.214-.914 1.821-2.272 1.821-4.074 0-3.213-2.428-4.82-7.284-4.82h-4.346v10.264zm72.56 35.297h-33.99v-57.273h33.99v12.417H72.672v9.011h17.152v12.419H72.673v10.812h18.522v12.614zm45.148 0l-2.82-10.734h-18.599l-2.898 10.735H95.033l18.678-57.51h20.636l18.913 57.51h-16.916zm-6.03-23.426l-2.467-9.402a345.68 345.68 0 0 1-2.096-8.11c-.82-3.316-1.363-5.694-1.624-7.13-.235 1.333-.7 3.526-1.39 6.582-.692 3.055-2.226 9.077-4.602 18.06h12.179zm44.6 2.587v20.839h-15.468v-57.273h18.757c15.56 0 23.339 5.642 23.339 16.924 0 6.633-3.238 11.765-9.71 15.395l16.68 24.954h-17.543l-12.139-20.84h-3.916zm0-11.637h2.898c5.404 0 8.105-2.389 8.105-7.168 0-3.944-2.65-5.917-7.949-5.917h-3.054v13.085zm76.24 15.083c0 3.551-.9 6.706-2.701 9.462-1.801 2.754-4.4 4.895-7.793 6.425-3.395 1.526-7.374 2.29-11.943 2.29-3.812 0-7.01-.267-9.594-.802-2.585-.537-5.273-1.47-8.066-2.8v-13.79a45.945 45.945 0 0 0 9.202 3.543c3.185.85 6.109 1.273 8.772 1.273 2.296 0 3.981-.397 5.051-1.195 1.07-.795 1.605-1.82 1.605-3.073 0-.784-.215-1.47-.646-2.058-.43-.588-1.123-1.182-2.075-1.783-.954-.6-3.492-1.828-7.617-3.681-3.732-1.698-6.533-3.344-8.4-4.937-1.866-1.593-3.248-3.421-4.15-5.484-.9-2.063-1.35-4.506-1.35-7.326 0-5.276 1.918-9.389 5.756-12.339 3.837-2.952 9.11-4.428 15.819-4.428 5.926 0 11.969 1.371 18.13 4.115l-4.738 11.947c-5.351-2.455-9.971-3.683-13.862-3.683-2.01 0-3.471.354-4.385 1.059-.914.705-1.37 1.578-1.37 2.624 0 1.122.58 2.129 1.742 3.016 1.16.888 4.314 2.508 9.456 4.859 4.934 2.219 8.36 4.603 10.279 7.149 1.919 2.546 2.879 5.752 2.879 9.617zM273.572 122.448l-14.707 54.014V68.488l14.707 53.96zm-15.6 55.321l-17.989-38.916 17.99-70.163v109.08zm-60.467 13.188l41.901-51.228 18.37 39.735-60.27 11.493zm-9.68 43.618l8.933-42.568 59.941-11.43-68.874 53.998zm35.766-6.761l-34.696 7.055 24.327-19.073 43.035-33.74-32.666 45.758zm-36.73 7.01l-25.646-23.487 34.535-18.858-8.889 42.345zM160.9 257.79v-45.531l25.568 23.412-25.568 22.119zm-.444-47.05L126.46 192.07h68.177l-34.182 18.667zm-31.478-55.846l30.565 23.163-34.276 12.888 3.711-36.051zm-7.94-34.155l1.212-.29 16.467-3.928-10.154 35.578-7.525-31.36zm-4.815-20.74l-5.588-24.096 40.073 3.492-3.364 4.484-26.626 35.497-4.495-19.376zm44.234-90.974l49.505 65.63-32.778-8.208-16.62-4.162a.463.463 0 0 0-.211 0h-.005l-15.992 4.039-.486.122-32.322 8.094 48.909-65.515zm74.75 43.171L257.2 64.967l-45.94 9.93-40.968-54.313-8.152-10.808 73.065 42.42zM166.882 10.03l53.626 10.788 35.921 42.671-93.419-54.237 3.872.778zm29.608.981l19.72 8.032-49.218-9.901 29.498 1.869zm61.26-5.976V41.1l-36.005-20.633 36.005-15.432zm0 58.638l-35.04-41.626 35.04 20.079v21.547zm-46.043 12.04l46.1-9.965-18.411 71.801-27.69-61.836zM201.15 120.16l10.06-43.375 27.4 61.188-37.46-17.813zm-8.026 33.068l7.815-32.181 37.363 17.766-45.178 14.415zm-.141.98l45.233-14.43-41.5 50.736-3.733-36.306zm-16.448 29.519l-15.166-5.673 30.772-23.326 3.726 36.227-19.332-7.228zm-16.08-5.063l33.463 12.515h-66.744l33.28-12.515zm-9.028-18.045c.037.01.077.016.116.016h17.822c.039 0 .079-.005.116-.016l20.92-5.691-25.362 19.225-4.584 3.476-29.957-22.701 20.93 5.691zm-11.863-43.825l15.256 12.983c.08.069.182.107.287.107h10.694a.443.443 0 0 0 .28-.1l15.97-12.998 9.87 36.663H128.99l10.575-36.655zm-.549-1.263l-8.056 1.908-9.361 2.248 24.038-32.047 4.58-6.105-11.201 33.996zm12.822-36.072h17.43l12.37 35.986-21.11-3.488a.39.39 0 0 0-.147 0l-20.397 3.486 11.854-35.984zm21.955 4.419l-3.369-4.491 40.081-3.497-5.591 24.109-4.496 19.376-26.625-35.497zm8.852 31.753l-11.718-34.088 4.572 6.097 24.038 32.047-9.36-2.248-7.532-1.808zm16.24 4.817l1.212.29-7.616 31.36-1.195-4.437-8.358-31.046 15.957 3.833zm-53.758-53.393l15.329-3.878 7.842 1.963 8.077 2.023-7.038 11.404h-17.564l-6.646-11.512zm-40.434-48.017l19.72-8.033 29.498-1.868-49.218 9.9zm173.984 4.55a.671.671 0 0 0-.14-.766L258.883 3.784c-.147-.147-.326-.07-.574.034-.17.073-.491.217-.491.217l-37.075 15.891-23.984-9.77a.477.477 0 0 0-.14-.032l-36.138-2.288c-.006 0-.01.003-.013.004-.007-.004-.012-.01-.02-.01-.005 0-.008.006-.013.006-.006.001-.008-.005-.015-.004l-36.139 2.287a.439.439 0 0 0-.14.033l-23.864 9.721c-.126.049-.472.154-.384.583.1.49.625.33.625.33l53.5-10.762 5.387-1.084-49.053 65.713c-.87.722-.43 2.132-.43 2.132l10.061 43.375.212.887 7.778 32.704-.005.02c-.007.023.015.044.013.067.02.74-3.422 35.184-3.668 37.641-.009.01-.02.02-.023.036-.009.035.009.066.008.102-.001.03-.021.056-.014.089.002.016.02.026.024.043a.417.417 0 0 0 .08.136c.029.037.05.07.089.097.013.01.016.026.031.034l35.5 19.492v47.257a.448.448 0 0 0 .446.446.443.443 0 0 0 .29-.11l26.594-23.007 36.602-7.442a.438.438 0 0 0 .273-.178l34.567-48.42c.015-.02.007-.047.018-.069.014-.027.041-.043.05-.072l15.614-57.348a.452.452 0 0 0 0-.234l-15.49-56.83c.015-.023.04-.033.052-.058l19.651-41.856z" fill="#FFF"/><g stroke="#FFF" stroke-linecap="round" stroke-linejoin="round" stroke-width=".75"><path vector-effect="non-scaling-stroke" d="M220.9 20.488l37.441-16.207L220.9 20.488zM258.341 65.154L220.9 20.488l37.441 44.666zM274.021 122.384l-15.68-57.23M258.341 179.814l15.68-57.43M220.9 20.488l37.441 21.462L220.9 20.488zM124.278 10.595l36.143-2.304-36.143 2.304zM124.278 10.595l-24.016 9.77 24.016-9.77z"/><path vector-effect="non-scaling-stroke" d="M100.262 20.365L160.42 8.291l-60.16 12.074zM196.747 10.61l24.153 9.878-24.153-9.878zM196.747 10.61l-36.326-2.32 36.326 2.32zM220.9 20.488L160.42 8.291l60.48 12.197zM258.341 65.154l-97.92-56.863 97.92 56.863zM211.05 75.406L160.42 8.29l50.63 67.115z"/><path vector-effect="non-scaling-stroke" d="M110.02 75.44l50.4-67.15-50.4 67.15zM258.341 65.154l-47.29 10.252 47.29-10.252zM169.52 78.99h-17.982 17.982zM176.96 66.88l-16.53-4.16 16.53 4.16zM144.496 66.877l15.934-4.157-15.934 4.157zM151.538 78.99l-31.076 41.394 31.076-41.394zM110.017 75.444l10.445 44.94-10.445-44.94zM258.341 65.154l-18.856 73.757 18.856-73.757zM258.341 65.154v114.66-114.66zM258.341 179.814l-18.856-40.903 18.856 40.903zM139.271 115.968l-18.81 4.416 18.81-4.416z"/><path vector-effect="non-scaling-stroke" d="M139.271 115.968l12.267-36.978-12.267 36.978zM128.454 153.98l-7.992-33.596 7.992 33.596z"/><path vector-effect="non-scaling-stroke" d="M139.271 115.968l-10.817 38.012 10.817-38.012zM128.45 153.98l32.05 24.22-32.05-24.22zM128.45 153.98l-3.698 37.648 3.698-37.648zM160.5 178.2l-35.748 13.428L160.5 178.2zM200.63 120.39l10.42-44.984-10.42 44.984zM200.63 120.39l38.855 18.521-38.855-18.521zM211.05 75.406l28.435 63.505-28.434-63.505zM200.63 120.39l-31.11-41.395 31.11 41.395zM200.63 120.39l-18.324-4.322 18.324 4.322z"/><path vector-effect="non-scaling-stroke" d="M182.306 116.068L169.52 78.995l12.786 37.073zM182.306 116.068l10.167 37.916-10.167-37.916zM239.49 138.91l-47.017 15.074 47.017-15.074z"/><path vector-effect="non-scaling-stroke" d="M200.63 120.39l-8.157 33.594 8.157-33.594zM196.338 191.628l43.152-52.718-43.152 52.718zM196.338 191.628l-3.865-37.644 3.865 37.644zM187.106 235.724l71.234-55.914-71.234 55.914zM196.338 191.628l-9.232 44.096 9.232-44.096z"/><path vector-effect="non-scaling-stroke" d="M196.338 191.628l62.002-11.818-62.002 11.818zM223.857 228.243l-36.75 7.48 36.75-7.48zM223.857 228.243l34.483-48.433-34.483 48.433zM196.338 191.628L160.5 178.2l35.838 13.428zM160.5 178.2l31.973-24.216L160.5 178.2zM196.338 191.628h-71.586 71.586zM196.338 191.628l-35.793 19.67 35.793-19.67zM160.545 211.298l-35.793-19.67 35.793 19.67zM187.106 235.724L160.54 211.3l26.566 24.424zM160.54 258.799l26.566-23.075-26.566 23.075zM160.54 258.799V211.3v47.499z"/></g><g fill="#FFF" stroke="#FFF" stroke-linecap="round" stroke-linejoin="round" stroke-width=".75"><path d="M258.341 65.154l19.575-41.851L258.341 4.28zM176.964 66.88l34.087 8.526-41.531 3.589zM139.271 115.968l21.23-3.566 21.805 3.666-16.475 13.388h-10.64zM110.017 75.444l41.521 3.546-7.042-12.113zM128.45 153.98h64.02l-23.32 6.314h-17.463z"/></g></symbol><symbol id="logo" viewBox="0 0 70 82"><path d="M14.419 64.88h-5.07L4.12 54.793h-.087c.123 1.586.186 2.797.186 3.633v6.454H.792V50.562h5.052l5.207 9.95h.06a57.674 57.674 0 0 1-.138-3.477v-6.473h3.446V64.88zM21.056 57.701c0 2.769.963 4.153 2.888 4.153.98 0 1.705-.336 2.178-1.008.473-.673.71-1.721.71-3.145 0-1.43-.24-2.485-.72-3.168-.48-.682-1.195-1.023-2.148-1.023-1.939 0-2.908 1.397-2.908 4.191m9.848 0c0 2.41-.59 4.241-1.772 5.495-1.18 1.253-2.91 1.88-5.188 1.88-2.245 0-3.966-.63-5.164-1.89-1.197-1.26-1.796-3.095-1.796-5.504 0-2.383.595-4.203 1.786-5.46 1.191-1.257 2.923-1.885 5.194-1.885 2.277 0 4.004.623 5.179 1.87 1.174 1.247 1.761 3.079 1.761 5.494M4.659 75.378v3.007h1.36c1.208 0 1.812-.51 1.812-1.528 0-.477-.162-.842-.485-1.097-.323-.254-.791-.382-1.405-.382H4.66zm0-2.83h1.165c.555 0 .984-.114 1.287-.343.304-.228.456-.568.456-1.018 0-.803-.608-1.205-1.821-1.205H4.659v2.566zM.792 67.054h4.993c1.945 0 3.388.289 4.331.866.943.579 1.415 1.478 1.415 2.699 0 .803-.205 1.488-.617 2.056a2.75 2.75 0 0 1-1.625 1.097v.098c.888.235 1.53.627 1.929 1.175.398.549.597 1.26.597 2.136 0 1.299-.488 2.322-1.464 3.07-.975.747-2.305 1.121-3.989 1.121H.792V67.054zM22.799 81.372h-8.497V67.054h8.497v3.104h-4.63v2.253h4.287v3.104h-4.288v2.704h4.63zM32.578 75.516l-.616-2.351a86.42 86.42 0 0 1-.524-2.028 33.426 33.426 0 0 1-.406-1.782A40.42 40.42 0 0 1 30.684 71c-.173.764-.556 2.27-1.15 4.516h3.044zm1.508 5.856l-.705-2.683h-4.65l-.724 2.683h-4.249l4.67-14.377h5.159l4.728 14.377h-4.229zM43.728 73.253h.725c1.351 0 2.026-.597 2.026-1.792 0-.986-.662-1.48-1.987-1.48h-.764v3.272zm0 2.91v5.209h-3.866V67.054h4.689c3.89 0 5.834 1.41 5.834 4.23 0 1.659-.809 2.942-2.427 3.85l4.17 6.238h-4.386l-3.034-5.21h-.98zM62.789 77.024c0 .888-.226 1.676-.676 2.365-.45.689-1.1 1.224-1.948 1.606-.849.382-1.843.573-2.986.573-.953 0-1.752-.067-2.398-.2a8.928 8.928 0 0 1-2.017-.7V77.22c.738.378 1.504.674 2.3.886.797.212 1.528.318 2.194.318.574 0 .995-.1 1.263-.299.267-.199.4-.455.4-.768a.845.845 0 0 0-.16-.514c-.108-.147-.281-.296-.52-.446-.238-.15-.872-.457-1.904-.92-.933-.425-1.633-.836-2.1-1.235a3.794 3.794 0 0 1-1.037-1.37c-.225-.517-.338-1.127-.338-1.832 0-1.32.48-2.347 1.44-3.085.959-.738 2.277-1.107 3.954-1.107 1.482 0 2.992.343 4.533 1.029l-1.185 2.986c-1.338-.613-2.493-.92-3.465-.92-.503 0-.868.088-1.097.264-.228.177-.342.395-.342.656 0 .281.145.533.435.755.29.222 1.079.626 2.364 1.214 1.234.555 2.09 1.151 2.57 1.787.48.637.72 1.439.72 2.405M68.393 30.612l-3.677 13.504V17.122l3.677 13.49zm-3.9 13.83l-4.497-9.729 4.497-17.54v27.27zM49.376 47.74l10.476-12.807 4.592 9.934-15.068 2.873zm-2.42 10.905l2.234-10.642 14.985-2.858-17.219 13.5zm8.942-1.69l-8.674 1.763 6.082-4.768 10.758-8.435-8.166 11.44zm-9.183 1.752l-6.411-5.872 8.633-4.714-2.222 10.586zm-6.49 5.741V53.064l6.392 5.854-6.392 5.53zm-.111-11.762l-8.5-4.667H48.66l-8.545 4.667zm-7.87-13.962l7.641 5.79-8.569 3.223.928-9.013zm-1.985-8.538l.303-.073 4.117-.982-2.539 8.894-1.88-7.84zM29.056 25l-1.397-6.025 10.018.873-.841 1.121-6.657 8.875L29.056 25zM40.114 2.256L52.49 18.663l-8.194-2.051-4.155-1.04a.116.116 0 0 0-.053 0h-.001l-3.998 1.009-.122.03-8.08 2.024L40.114 2.256zM58.8 13.049l5.499 3.193-11.485 2.482L42.573 5.146l-2.038-2.702L58.8 13.049zM41.721 2.507l13.406 2.697 8.98 10.668-23.354-13.56.968.195zm7.402.245l4.93 2.009-12.305-2.476 7.375.467zM64.438 1.26v9.016l-9.001-5.158 9-3.858zm0 14.659L55.678 5.51l8.76 5.02v5.387zm-11.511 3.01l11.525-2.491-4.603 17.95-6.922-15.459zm-2.64 11.112l2.515-10.844 6.85 15.297-9.364-4.453zm-2.006 8.267l1.954-8.045 9.34 4.441-11.294 3.604zm-.035.245l11.308-3.608-10.375 12.684-.933-9.076zm-4.112 7.38l-3.792-1.419 7.693-5.831.932 9.057-4.833-1.807zm-4.02-1.266l8.366 3.129H31.794l8.32-3.129zm-2.257-4.511c.009.002.02.004.029.004h4.455c.01 0 .02-.002.03-.004l5.23-1.423-6.341 4.806-1.146.87-7.49-5.676 5.233 1.423zM34.89 29.199l3.814 3.245a.11.11 0 0 0 .072.027h2.673a.11.11 0 0 0 .07-.025l3.993-3.25 2.467 9.166H32.247l2.644-9.163zm-.137-.316l-2.014.477-2.34.562 6.01-8.012 1.144-1.526-2.8 8.499zm3.205-9.018h4.358l3.092 8.996-5.277-.872a.098.098 0 0 0-.037 0l-5.1.872 2.964-8.996zm5.489 1.104l-.842-1.122 10.02-.875L51.228 25l-1.124 4.844-6.656-8.875zm2.213 7.939l-2.93-8.522 1.144 1.524 6.009 8.012-2.34-.562-1.883-.452zm4.06 1.204l.303.073-1.904 7.84-.299-1.11-2.09-7.761 3.99.958zm-13.44-13.348l3.833-.97 1.96.491 2.02.506-1.76 2.85h-4.391l-1.662-2.877zM26.173 4.759l4.93-2.008 7.375-.467L26.173 4.76zM69.67 5.897a.168.168 0 0 0-.035-.191L64.72.946c-.037-.037-.081-.017-.143.009a9.758 9.758 0 0 0-.123.054l-9.27 3.973-5.995-2.443a.12.12 0 0 0-.035-.008l-9.035-.572-.003.001-.005-.002-.003.001-.004-.001-9.034.572a.11.11 0 0 0-.035.008l-5.966 2.43c-.032.012-.119.039-.097.146.026.122.157.083.157.083l13.375-2.691 1.347-.27-12.264 16.427c-.217.18-.107.533-.107.533l2.515 10.844.053.222 1.945 8.176-.002.005c-.001.005.004.01.003.017.005.185-.855 8.796-.917 9.41-.002.002-.004.005-.005.009-.002.008.002.016.002.025 0 .008-.005.014-.004.022 0 .005.005.007.006.011a.104.104 0 0 0 .02.034c.007.01.013.018.022.025.004.002.004.006.008.008l8.875 4.873v11.814a.112.112 0 0 0 .112.112.11.11 0 0 0 .072-.028l6.649-5.751 9.15-1.86a.11.11 0 0 0 .069-.045l8.641-12.106c.004-.005.002-.011.005-.017.003-.006.01-.01.012-.018l3.904-14.337a.113.113 0 0 0 0-.058l-3.873-14.208c.004-.006.01-.008.013-.014L69.67 5.897z"/></symbol><symbol id="mic" viewBox="0 0 28 38"><title>mic</title><path d="M24.6 18c0 6-5.07 10.2-10.6 10.2C8.48 28.2 3.4 24 3.4 18H0c0 6.83 5.44 12.47 12 13.44V38h4v-6.56c6.56-.97 12-6.61 12-13.44h-3.4z"/><path d="M14 24c3.31 0 5.98-2.69 5.98-6L20 6c0-3.32-2.68-6-6-6-3.31 0-6 2.68-6 6v12c0 3.31 2.69 6 6 6z" fill="currentColor"/></symbol><symbol id="mouse" viewBox="0 0 41 72"><g fill-rule="evenodd"><path d="M20.5 3C10.835 3 3 10.835 3 20.5v31C3 61.165 10.835 69 20.5 69S38 61.165 38 51.5v-31C38 10.835 30.165 3 20.5 3zm0-3C31.822 0 41 9.178 41 20.5v31C41 62.822 31.822 72 20.5 72S0 62.822 0 51.5v-31C0 9.178 9.178 0 20.5 0z"/><rect x="17" y="18" width="7" height="7" rx="3.5"/></g></symbol><symbol id="swipe" viewBox="0 0 45 49"><title>swipe</title><g fill="#FFF" fill-rule="nonzero"><path d="M41.726 4.347H28.897c-.59 0-1.07.476-1.07 1.063 0 .586.48 1.062 1.07 1.062h12.829c.59 0 1.069-.476 1.069-1.062 0-.587-.48-1.063-1.07-1.063z"/><path d="M42.482 4.66L38.206.41a1.075 1.075 0 0 0-1.511 0 1.058 1.058 0 0 0 0 1.502l3.519 3.498-3.522 3.499a1.058 1.058 0 0 0 0 1.502 1.077 1.077 0 0 0 1.514 0l4.276-4.25a1.058 1.058 0 0 0 0-1.501zM13.93 4.347H1.102c-.59 0-1.07.476-1.07 1.063 0 .586.48 1.062 1.07 1.062H13.93c.59 0 1.07-.476 1.07-1.062 0-.587-.48-1.063-1.07-1.063z"/><path d="M2.614 5.41l3.519-3.498a1.058 1.058 0 0 0 0-1.502 1.075 1.075 0 0 0-1.512 0L.345 4.66a1.058 1.058 0 0 0 0 1.502l4.276 4.25a1.077 1.077 0 0 0 1.512-.003 1.058 1.058 0 0 0 0-1.502L2.613 5.41zM40.656 21.345c-.878 0-1.697.265-2.377.718a4.285 4.285 0 0 0-4.037-2.843c-.879 0-1.697.266-2.377.718a4.285 4.285 0 0 0-6.175-2.271V10.72c0-2.343-1.918-4.249-4.276-4.249-2.359 0-4.277 1.906-4.277 4.25V28.78l-3.715-2.768c-2.203-1.643-5.337-1.424-7.29.514a3.175 3.175 0 0 0 0 4.506l15.226 15.132a9.594 9.594 0 0 0 6.806 2.8h5.01c6.482 0 11.759-5.241 11.759-11.685V25.594c0-2.344-1.918-4.25-4.277-4.25zm2.139 15.935c0 5.27-4.317 9.56-9.622 9.56h-5.01a7.46 7.46 0 0 1-5.293-2.177L7.644 29.53a1.058 1.058 0 0 1 0-1.502 3.46 3.46 0 0 1 2.438-.995c.723 0 1.45.224 2.059.678l5.424 4.043c.325.243.761.279 1.12.1.362-.18.59-.548.59-.95V10.722c0-1.17.959-2.124 2.139-2.124 1.18 0 2.138.954 2.138 2.124v15.935c0 .587.479 1.063 1.069 1.063s1.069-.476 1.069-1.063v-5.311c0-1.171.958-2.125 2.138-2.125s2.138.954 2.138 2.125v5.311c0 .587.48 1.063 1.07 1.063.59 0 1.068-.476 1.068-1.063V23.47c0-1.17.958-2.124 2.138-2.124s2.138.954 2.138 2.124v3.187c0 .587.48 1.063 1.07 1.063.59 0 1.068-.476 1.068-1.063v-1.062c0-1.17.958-2.125 2.139-2.125 1.18 0 2.138.954 2.138 2.125V37.28z"/></g></symbol></svg>